<?xml version="1.0" standalone="no"?>
<!DOCTYPE svg PUBLIC "-//W3C//DTD SVG 20010904//EN"
 "http://www.w3.org/TR/2001/REC-SVG-20010904/DTD/svg10.dtd">
<svg version="1.0" xmlns="http://www.w3.org/2000/svg"
 width="1024.000000pt" height="1024.000000pt" viewBox="0 0 1024.000000 1024.000000"
 preserveAspectRatio="xMidYMid meet">

<g transform="translate(0.000000,1024.000000) scale(0.100000,-0.100000)"
fill="#000000" stroke="none">
<path d="M0 5120 l0 -5120 5120 0 5120 0 0 5120 0 5120 -5120 0 -5120 0 0
-5120z m5510 2735 c189 -31 467 -123 620 -207 438 -239 775 -641 929 -1109 59
-179 81 -307 88 -504 9 -288 -29 -533 -120 -771 -63 -164 -160 -339 -256 -459
-82 -103 -274 -297 -371 -375 -100 -79 -269 -182 -288 -175 -7 3 -11 1 -8 -4
6 -10 -133 -75 -142 -66 -3 3 0 5 7 5 7 0 9 4 6 10 -3 5 0 7 8 4 16 -6 31 32
16 42 -5 3 -9 1 -9 -5 0 -6 -7 -8 -16 -4 -14 5 -12 8 7 19 13 7 21 13 17 14
-3 0 -15 3 -25 6 -13 4 -14 3 -5 -4 11 -7 9 -10 -7 -15 -12 -3 -24 0 -28 5 -4
7 -1 8 7 3 9 -5 11 -4 6 4 -6 9 -13 8 -31 -3 -15 -10 -26 -12 -30 -6 -4 6 -1
9 7 8 9 -2 14 9 15 32 0 19 -1 25 -4 13 -2 -13 -11 -23 -20 -23 -12 0 -13 3
-4 14 6 8 10 20 9 27 -2 8 4 13 12 11 8 -2 11 0 7 5 -5 4 -14 8 -20 8 -7 0
-12 9 -12 19 0 12 -8 20 -25 23 -13 2 -27 9 -32 15 -4 7 -10 9 -14 5 -11 -10
16 -36 32 -30 8 3 14 1 15 -3 0 -5 2 -17 4 -27 2 -9 -1 -15 -5 -12 -5 3 -12 0
-16 -6 -4 -7 -3 -9 4 -5 6 3 13 2 17 -4 4 -6 11 -8 16 -5 5 4 9 2 9 -3 0 -5
-13 -9 -29 -8 -16 1 -27 4 -25 8 3 4 -4 11 -13 17 -11 6 -13 11 -5 12 6 1 17
2 22 3 12 1 14 15 3 17 -5 1 -18 10 -31 20 -13 10 -31 15 -40 12 -9 -3 -14 -3
-11 0 9 11 149 66 149 59 0 -4 4 -2 8 4 4 6 46 31 94 57 267 145 559 453 673
711 14 31 25 59 25 61 0 3 -136 5 -302 5 l-301 0 -45 26 c-57 34 -111 36 -151
6 -29 -21 -37 -22 -275 -22 l-246 0 -32 29 c-26 23 -32 36 -31 65 1 50 26 83
70 95 21 6 135 11 255 11 209 0 218 -1 270 -25 66 -31 72 -31 130 0 l47 25
345 0 344 0 11 31 c6 18 11 45 11 60 l0 29 -238 0 c-132 0 -321 3 -421 7 -176
6 -182 7 -206 31 -37 37 -35 103 4 143 29 29 30 29 153 29 68 0 255 3 416 7
l292 6 0 54 0 53 -212 0 c-193 0 -216 2 -245 20 -62 38 -67 131 -9 174 25 20
43 21 257 24 144 2 227 7 224 13 -4 5 -11 7 -16 4 -5 -4 -4 6 1 21 8 20 8 29
-1 35 -7 4 -9 14 -6 22 8 21 -32 27 -169 27 -110 0 -115 1 -144 28 -52 46 -50
132 4 167 17 11 60 18 140 23 l116 7 -59 122 c-136 280 -279 446 -551 640
-296 211 -670 314 -1037 286 -297 -23 -572 -118 -810 -279 -215 -145 -381
-324 -515 -556 -28 -50 -55 -85 -61 -81 -6 4 -5 10 5 17 8 6 13 17 10 25 -3 8
0 11 6 7 6 -3 12 -1 14 6 6 18 -3 59 -11 53 -4 -2 -8 2 -8 10 0 19 2 19 20 0
13 -13 16 -13 21 1 3 8 2 13 -3 10 -5 -3 -23 8 -39 25 -18 18 -37 29 -45 26
-8 -3 -28 8 -47 26 -18 17 -34 27 -38 21 -15 -21 -35 -8 -37 24 -1 17 2 32 7
32 4 0 6 -13 4 -30 -2 -16 0 -27 4 -25 11 7 9 58 -2 72 -12 15 19 66 35 56 6
-3 7 -1 3 6 -9 13 45 89 138 195 91 102 266 258 364 323 262 175 612 300 927
332 118 13 355 5 475 -14z m-735 -639 c124 -52 80 -246 -55 -246 -72 0 -120
51 -120 127 0 100 84 157 175 119z m496 -22 c16 -16 34 -45 41 -65 9 -32 8
-44 -10 -81 -26 -52 -66 -78 -121 -78 -90 0 -148 105 -104 190 37 72 136 90
194 34z m416 25 c40 -15 71 -47 84 -86 9 -28 8 -43 -6 -80 -41 -106 -178 -113
-230 -13 -33 63 -5 148 58 175 39 17 57 18 94 4z m-1304 -110 c26 -33 22 -83
-9 -108 -29 -23 -80 -27 -105 -8 -45 35 -46 92 0 128 32 26 88 20 114 -12z
m1772 6 c52 -51 18 -135 -54 -135 -42 0 -54 7 -70 37 -22 44 -10 86 34 111 32
18 64 14 90 -13z m-2521 -277 c3 1 6 -1 5 -4 -2 -13 25 -22 41 -14 12 6 17 5
17 -6 0 -9 -6 -13 -15 -9 -10 4 -12 0 -8 -12 6 -16 5 -16 -8 0 -8 10 -23 20
-33 21 -10 2 -19 8 -19 14 -1 7 -2 17 -3 23 0 5 -5 7 -11 4 -6 -4 -7 1 -3 11
5 14 8 13 19 -7 7 -13 15 -23 18 -21z m2237 12 c133 -37 107 -230 -31 -230
-126 0 -169 170 -55 221 47 22 41 21 86 9z m-1544 -56 c43 -66 -4 -154 -82
-154 -51 0 -82 21 -93 64 -13 44 -5 80 22 104 40 38 123 31 153 -14z m1164 17
c23 -23 29 -38 29 -71 0 -33 -6 -48 -29 -71 l-29 -29 -439 0 c-481 0 -466 -2
-498 60 -23 44 -19 78 14 111 l29 29 447 0 447 0 29 -29z m878 15 c84 -44 56
-177 -41 -193 -33 -5 -41 -2 -73 30 -28 28 -35 43 -35 74 0 45 13 66 55 88 37
19 58 19 94 1z m-2714 -55 c-9 -8 -36 -10 -30 -2 2 4 11 8 20 8 8 0 13 -3 10
-6z m21 -33 c3 -4 -1 -5 -10 -4 -8 1 -18 5 -22 8 -3 4 1 5 10 4 8 -1 18 -5 22
-8z m45 -11 c-10 -9 -11 -8 -5 6 3 10 9 15 12 12 3 -3 0 -11 -7 -18z m-16 -27
c-3 -5 -12 -10 -18 -10 -7 0 -6 4 3 10 19 12 23 12 15 0z m275 -205 c37 -19
50 -43 50 -95 0 -106 -154 -135 -195 -37 -40 94 54 179 145 132z m1735 1 c36
-16 65 -59 65 -100 0 -14 -13 -40 -29 -58 l-29 -33 -549 0 c-301 0 -631 2
-731 5 l-184 5 -24 28 c-42 50 -21 132 40 157 11 5 333 9 714 9 577 1 698 -1
727 -13z m461 -20 c69 -69 25 -176 -74 -176 -66 0 -118 86 -92 150 15 37 52
59 99 60 25 0 42 -9 67 -34z m-870 -339 c44 -51 24 -145 -36 -165 -21 -8 -216
-9 -628 -4 -328 4 -571 8 -540 10 43 2 56 6 52 17 -4 9 1 12 13 10 10 -2 20
-4 23 -4 3 -1 -1 -5 -8 -10 -8 -5 5 -8 35 -10 43 -1 46 0 28 13 -11 8 -27 12
-37 11 -10 -2 -20 0 -23 6 -4 5 0 9 7 9 9 0 9 3 -2 10 -8 5 -13 10 -10 11 3 0
13 2 23 4 12 2 17 -1 14 -9 -3 -7 1 -13 8 -13 7 0 11 6 8 13 -3 8 2 12 14 10
10 -2 26 5 35 15 16 17 16 18 -10 16 -16 -1 -26 3 -25 10 3 12 -14 12 -34 0
-6 -4 -15 -3 -18 3 -5 8 -11 8 -19 1 -9 -8 -21 -1 -43 24 -18 20 -26 36 -19
39 7 3 7 5 0 5 -5 1 -19 -6 -30 -14 -14 -11 -15 -14 -3 -9 19 6 62 -34 52 -49
-3 -5 -11 0 -17 12 -7 12 -15 18 -19 15 -11 -11 -8 -26 3 -19 6 3 10 0 10 -8
0 -11 12 -14 47 -13 25 0 48 -4 50 -10 2 -6 -18 -10 -54 -9 -38 1 -58 6 -58
14 0 6 -6 16 -14 20 -9 6 -10 11 -2 15 15 10 14 27 -1 24 -8 -2 -12 5 -10 16
2 11 -1 15 -7 11 -6 -3 -11 -1 -11 5 0 7 179 10 616 8 l616 -3 24 -28z m824 6
c39 -35 50 -91 25 -129 -32 -49 -63 -54 -330 -54 -309 0 -335 8 -335 107 0 43
21 80 54 93 11 5 141 9 288 9 l268 1 30 -27z m-2081 -10 c9 -18 9 -22 -2 -18
-7 3 -13 15 -14 26 -2 24 0 23 16 -8z m201 -74 c0 -11 -23 -7 -32 6 -4 5 -4
13 -1 18 5 9 33 -11 33 -24z m-185 1 c10 -11 16 -20 13 -20 -3 0 -13 9 -23 20
-10 11 -16 20 -13 20 3 0 13 -9 23 -20z m110 -30 c-1 -8 -7 -15 -14 -15 -6 0
-16 -7 -21 -15 -5 -8 -12 -11 -17 -7 -4 5 -1 12 7 17 10 7 11 10 3 10 -7 0
-13 6 -13 14 0 9 10 13 29 12 19 0 28 -6 26 -16z m1220 -204 c48 -21 71 -67
56 -118 -20 -65 -33 -68 -336 -68 -294 0 -311 3 -335 60 -19 47 1 107 43 125
47 21 523 21 572 1z m322 -1 c36 -10 56 -52 50 -103 -6 -57 -33 -82 -89 -82
-74 0 -117 70 -88 145 10 27 64 57 90 50 8 -2 25 -6 37 -10z m-1476 -18 c-10
-9 -11 -8 -5 6 3 10 9 15 12 12 3 -3 0 -11 -7 -18z m369 -2 c10 -9 22 -30 25
-46 5 -23 1 -34 -22 -55 -15 -14 -22 -23 -15 -19 7 3 12 0 12 -8 0 -7 -11 -19
-25 -25 -32 -15 -75 -15 -75 -1 0 5 5 7 10 4 6 -3 10 -1 10 4 0 6 5 11 11 11
5 0 7 -5 3 -12 -4 -7 -3 -8 4 -4 16 10 15 31 -3 46 -8 7 -12 17 -8 24 4 6 8
19 9 29 1 9 2 19 3 22 2 11 1 15 -6 15 -5 0 -9 -4 -9 -10 -1 -5 -3 -12 -4 -15
-1 -3 -3 -11 -4 -17 -1 -7 -7 -12 -12 -11 -6 1 -11 -4 -11 -12 0 -8 3 -12 7
-10 4 3 15 -4 24 -14 14 -16 15 -19 2 -24 -9 -4 -21 4 -30 19 -9 13 -14 24
-10 24 4 0 1 7 -6 15 -11 14 -7 19 13 16 9 -1 9 13 0 23 -15 15 -12 45 5 49
33 7 84 -1 102 -18z m20 -105 c0 -5 -5 -10 -11 -10 -5 0 -7 5 -4 10 3 6 8 10
11 10 2 0 4 -4 4 -10z m-149 -27 c13 -16 12 -17 -3 -4 -10 7 -18 15 -18 17 0
8 8 3 21 -13z m299 -183 c18 -12 2 -12 -25 0 -13 6 -15 9 -5 9 8 0 22 -4 30
-9z m353 -10 c34 -27 44 -78 23 -118 -8 -16 -23 -32 -31 -36 -27 -10 -97 -7
-90 4 3 5 0 7 -8 5 -28 -11 -51 34 -48 93 3 63 99 95 154 52z m-461 -25 c3
-13 1 -22 -3 -19 -9 5 -13 44 -5 44 2 0 6 -11 8 -25z m54 -6 c-1 -31 -16 -52
-17 -23 0 10 -2 26 -4 35 -1 9 3 16 9 16 7 0 12 -13 12 -28z m30 6 c1 -8 -1
-17 -5 -19 -4 -3 -7 6 -7 19 0 25 8 25 12 0z m74 -19 c0 -5 -7 -1 -15 10 -8
10 -14 24 -14 29 0 6 6 1 14 -9 8 -11 15 -24 15 -30z m-265 14 c5 8 11 7 22
-2 9 -7 24 -14 35 -14 28 -2 30 -3 23 -14 -4 -7 -12 -7 -18 -2 -20 14 -42 8
-42 -13 0 -16 7 -20 32 -20 17 0 34 -2 37 -5 3 -3 -15 -6 -39 -6 -24 0 -43 5
-42 11 1 5 -7 10 -19 9 -11 -1 -21 5 -21 12 0 7 3 13 6 12 20 -2 22 5 5 24
-13 16 -14 19 -2 10 11 -9 18 -10 23 -2z m132 -42 c-3 -7 -5 -2 -5 12 0 14 2
19 5 13 2 -7 2 -19 0 -25z m99 20 c4 -7 3 -8 -4 -4 -14 8 -15 -3 -3 -23 5 -8
16 -11 25 -8 10 4 16 1 16 -9 0 -8 -4 -13 -9 -10 -5 3 -14 -1 -21 -9 -8 -9
-17 -12 -24 -7 -6 5 -23 8 -38 7 -18 -1 -25 2 -20 9 4 6 7 14 7 19 0 4 4 7 9
6 5 0 13 5 17 13 7 10 9 10 9 1 0 -23 2 -28 12 -40 18 -22 28 -3 12 22 -9 13
-13 29 -9 35 8 13 12 13 21 -2z m-301 -17 c-9 -8 -36 -10 -30 -2 2 4 11 8 20
8 8 0 13 -3 10 -6z m177 2 c-6 -2 -9 -10 -6 -15 4 -7 2 -8 -5 -4 -13 9 -5 26
12 25 9 0 8 -2 -1 -6z m1261 -242 c88 -2 131 -75 92 -152 -9 -16 -27 -34 -41
-39 -15 -6 -220 -9 -507 -8 -265 1 -441 5 -392 8 50 3 73 8 53 9 -21 2 -44 4
-50 5 -7 0 -13 6 -13 13 0 6 -4 15 -9 20 -5 4 -6 3 -2 -4 3 -6 2 -14 -3 -18
-6 -3 -8 6 -5 21 4 22 2 25 -16 19 -14 -4 -20 -2 -20 8 0 16 -27 30 -41 22 -5
-4 -6 2 -2 11 4 12 3 15 -6 10 -7 -5 -10 -2 -9 6 2 7 -6 13 -17 13 -11 1 -19
5 -18 10 0 6 -6 16 -14 24 -13 11 -14 9 -10 -19 3 -17 3 -29 -1 -25 -7 7 -8
12 -11 40 -1 12 -26 15 -148 17 -82 2 52 5 297 8 398 4 756 5 893 1z m434 -33
c49 -46 20 -148 -47 -163 -56 -12 -99 27 -100 93 0 32 6 49 25 67 32 33 89 34
122 3z m-220 -400 c-3 -7 -5 -2 -5 12 0 14 2 19 5 13 2 -7 2 -19 0 -25z m-7
-41 c0 -2 -10 -12 -22 -23 l-23 -19 19 23 c18 21 26 27 26 19z m-265 -346 c3
-5 2 -12 -3 -15 -5 -3 -9 1 -9 9 0 17 3 19 12 6z m-3199 -785 c68 -18 144 -60
184 -101 l33 -34 -31 -38 c-16 -21 -43 -50 -59 -66 l-29 -27 -67 34 c-77 41
-138 52 -194 37 -62 -17 -87 -42 -87 -86 0 -50 21 -64 174 -116 217 -73 278
-118 302 -221 11 -50 1 -138 -15 -139 -7 0 -20 -2 -30 -4 -11 -2 -16 0 -12 3
4 4 11 8 16 8 19 3 20 4 14 14 -4 6 -15 4 -29 -5 -20 -13 -25 -13 -35 -2 -6 8
-8 16 -5 20 3 3 -3 3 -14 0 -11 -2 -23 1 -27 8 -6 8 -4 10 5 4 8 -5 11 -4 7 3
-4 5 -18 9 -32 7 -20 -2 -29 5 -42 32 -19 41 -49 57 -200 108 -66 22 -110 42
-106 48 3 6 1 7 -6 3 -17 -11 -93 37 -123 76 -91 120 -44 311 98 394 88 52
209 67 310 40z m895 4 c117 -22 242 -104 307 -201 56 -83 82 -169 82 -274 0
-155 -37 -253 -133 -352 -45 -47 -53 -51 -86 -47 -64 9 -82 14 -76 24 3 5 1
11 -4 14 -5 4 -13 1 -17 -5 -5 -8 -3 -9 6 -4 8 5 11 4 7 -2 -9 -14 -68 -4 -91
16 -11 9 -17 11 -13 5 3 -6 0 -11 -8 -11 -8 0 -12 4 -10 8 3 4 -8 12 -25 17
-18 7 -32 7 -35 1 -10 -16 -25 -10 -18 8 5 12 2 15 -10 10 -9 -3 -19 -2 -23 4
-4 6 -11 6 -20 -2 -11 -9 -20 -6 -40 15 -15 14 -33 26 -40 26 -7 0 -20 7 -28
16 -11 10 -16 11 -16 3 0 -8 -7 -6 -19 5 -11 10 -25 15 -32 10 -9 -5 -10 -2
-6 9 3 9 3 16 -1 15 -17 -5 -80 26 -75 36 4 6 0 5 -9 -2 -11 -9 -18 -10 -23
-2 -3 5 -17 10 -30 10 -13 0 -27 5 -31 12 -5 7 -3 8 6 3 9 -6 11 -4 5 5 -6 10
-11 10 -20 -3 -10 -14 -13 -12 -23 21 -56 195 19 410 183 527 119 86 229 111
366 85z m659 0 c61 0 60 4 60 -391 l0 -359 183 0 c224 0 222 1 222 -98 0 -100
-3 -102 -144 -102 -70 0 -144 7 -186 16 -38 9 -94 19 -124 23 -30 4 -57 13
-59 19 -2 7 -8 9 -13 6 -6 -3 -17 0 -25 7 -13 10 -17 10 -25 -2 -7 -12 -9 -12
-10 1 0 8 -5 4 -9 -10 -4 -14 -8 173 -9 416 -1 408 0 442 17 457 18 16 58 27
80 21 8 -2 26 -4 42 -4z m972 -1 c70 -15 145 -51 193 -92 46 -40 45 -47 -28
-128 l-48 -53 -27 18 c-130 84 -270 86 -319 5 -20 -33 -11 -73 22 -95 13 -8
92 -40 175 -69 165 -58 207 -84 244 -148 55 -95 40 -207 -38 -294 -53 -59
-151 -109 -194 -99 -20 5 -23 4 -12 -4 11 -7 -10 -9 -70 -8 -47 1 -66 3 -42 5
23 2 42 8 42 14 0 5 -19 9 -42 10 -24 0 -53 2 -65 5 -13 2 -23 -1 -23 -6 0 -6
5 -10 12 -10 6 0 9 -2 6 -5 -6 -7 -88 23 -103 37 -6 6 -2 6 10 2 21 -8 21 -6
-9 16 -13 10 -17 10 -12 3 10 -18 -5 -16 -32 3 -12 8 -19 21 -16 27 4 7 3 9
-1 4 -12 -10 -65 43 -65 65 0 11 23 44 51 73 l51 54 44 -35 c82 -68 193 -92
271 -59 44 18 62 41 63 77 0 43 -33 64 -169 109 -152 50 -206 77 -248 121 -43
45 -63 96 -63 164 0 83 18 130 72 189 85 93 229 133 370 104z m950 -18 c98
-34 195 -112 184 -148 -3 -10 -30 -42 -59 -71 l-54 -53 -61 42 c-52 36 -72 43
-121 47 -117 8 -207 -44 -260 -150 -92 -183 36 -408 231 -408 71 0 113 16 166
64 l40 37 66 -62 c36 -34 66 -66 66 -72 0 -21 -53 -79 -103 -112 -74 -49 -161
-69 -273 -63 -78 4 -101 10 -165 41 -98 47 -176 127 -227 234 -36 77 -37 80
-37 198 1 99 5 131 24 185 38 107 134 225 219 269 12 7 55 21 95 32 86 23 183
20 269 -10z m785 8 c19 -17 45 -72 213 -459 71 -162 145 -332 165 -378 47
-106 43 -112 -70 -112 -99 0 -104 4 -155 130 l-32 80 -212 0 -211 0 -46 -102
-46 -103 -94 0 -94 0 -3 30 c-2 21 18 75 66 175 63 131 127 282 203 475 79
204 108 256 154 276 28 13 142 4 162 -12z m655 -6 c20 -18 315 -359 416 -481
l52 -63 2 262 3 262 28 21 c20 15 43 21 79 21 42 0 53 -4 74 -28 l24 -28 0
-258 c0 -384 -10 -620 -27 -637 -18 -17 -94 -18 -115 -1 -19 14 -314 365 -413
491 l-70 88 -5 -275 c-6 -325 -3 -317 -105 -317 -108 0 -100 -38 -103 469 -2
306 1 447 8 462 6 11 21 24 33 29 32 14 95 5 119 -17z"/>
<path d="M3570 6970 c0 -5 5 -10 10 -10 6 0 10 5 10 10 0 6 -4 10 -10 10 -5 0
-10 -4 -10 -10z"/>
<path d="M3650 6875 c0 -5 5 -17 10 -25 5 -8 10 -10 10 -5 0 6 -5 17 -10 25
-5 8 -10 11 -10 5z"/>
<path d="M3727 6829 c7 -7 15 -10 18 -7 3 3 -2 9 -12 12 -14 6 -15 5 -6 -5z"/>
<path d="M5926 4312 c-3 -5 1 -9 9 -9 8 0 12 4 9 9 -3 4 -7 8 -9 8 -2 0 -6 -4
-9 -8z"/>
<path d="M6020 4225 c-8 -9 -8 -15 -2 -15 12 0 26 19 19 26 -2 2 -10 -2 -17
-11z"/>
<path d="M4136 6151 c-3 -4 4 -17 17 -27 22 -19 22 -19 4 2 -9 11 -14 24 -10
27 3 4 4 7 0 7 -3 0 -8 -4 -11 -9z"/>
<path d="M4320 6091 c0 -6 4 -13 10 -16 6 -3 7 1 4 9 -7 18 -14 21 -14 7z"/>
<path d="M4351 6036 c-12 -15 -28 -16 -48 -3 -6 4 -14 3 -18 -3 -4 -6 -12 -7
-18 -4 -7 4 -8 3 -4 -2 15 -16 76 -11 94 8 9 10 14 18 11 18 -3 0 -11 -6 -17
-14z"/>
<path d="M4283 5983 c9 -2 23 -2 30 0 6 3 -1 5 -18 5 -16 0 -22 -2 -12 -5z"/>
<path d="M4134 6032 c4 -3 14 -7 22 -8 9 -1 13 0 10 4 -4 3 -14 7 -22 8 -9 1
-13 0 -10 -4z"/>
<path d="M4504 5795 c3 -21 16 -31 16 -12 0 9 -4 18 -9 21 -5 4 -8 -1 -7 -9z"/>
<path d="M4576 5742 c-2 -4 -1 -14 3 -21 6 -10 10 -9 14 3 6 16 -8 32 -17 18z"/>
<path d="M4990 5371 c0 -6 4 -13 10 -16 6 -3 7 1 4 9 -7 18 -14 21 -14 7z"/>
<path d="M4569 5446 c-1 -3 -2 -9 -3 -13 -1 -5 -4 -13 -8 -19 -4 -6 -1 -11 7
-11 8 0 13 3 10 5 -3 3 0 11 6 18 7 8 7 14 -1 19 -5 3 -11 4 -11 1z"/>
<path d="M4733 5385 c0 -6 6 -12 12 -12 6 0 12 6 12 12 0 6 -6 12 -12 12 -6 0
-12 -6 -12 -12z"/>
<path d="M3405 3358 c-51 -18 -113 -66 -144 -112 -77 -111 -63 -247 34 -355
24 -26 31 -41 25 -49 -7 -8 -7 -9 1 -3 7 6 27 2 53 -10 27 -12 64 -19 112 -19
114 0 191 49 250 160 28 53 26 181 -4 237 -66 125 -212 192 -327 151z"/>
<path d="M6838 3274 c-8 -12 -98 -213 -109 -241 l-9 -23 125 0 124 0 -48 108
c-61 137 -77 167 -83 156z"/>
</g>
</svg>
